<svg xmlns="http://www.w3.org/2000/svg" viewBox="0 0 174.96 45.36"><defs><style>.cls-1{fill:#25283d;}</style></defs><g id="Layer_2" data-name="Layer 2"><g id="Layer_1-2" data-name="Layer 1"><path class="cls-1" d="M43.12,14.72l-3.49,3.49A17.93,17.93,0,0,1,35,35.7l-.3.28a17.94,17.94,0,1,1,3.78-20.75L41.79,12a22.41,22.41,0,1,0,1.33,2.77Z"/><rect class="cls-1" x="16.94" y="6.66" width="30.65" height="12.28" rx="5.75" transform="translate(0.4 26.56) rotate(-45)"/><path class="cls-1" d="M67.59,15.9v8.38H77.65v.54H67.59v9H79.28v.54H67.05v-19H78.9v.54Z"/><path class="cls-1" d="M117.63,34.31v-19h.55v19Z"/><path class="cls-1" d="M97.33,34.31V30.38h.54v3.93Z"/><path class="cls-1" d="M137.4,15.9V34.31h-.55V15.9h-6.5v-.54H143.9v.54Z"/><path class="cls-1" d="M168.91,34.31H151.64l8.64-19.81Zm-16.38-.58H168L160.28,16Z"/><polygon class="cls-1" points="104.42 15.52 103.78 15.52 97.6 29.71 91.42 15.52 90.79 15.52 97.6 31.16 104.42 15.52"/><path class="cls-1" d="M171.62,11.29H171v-.23h1.61v.23h-.66v1.93h-.29Z"/><path class="cls-1" d="M174.64,12.27c0-.3,0-.67,0-.94h0c-.07.26-.16.53-.27.83l-.38,1.05h-.21l-.35-1a7.71,7.71,0,0,1-.25-.85h0c0,.27,0,.64,0,1l-.06.93h-.27l.15-2.16h.36l.37,1c.09.27.16.51.22.73h0a6.56,6.56,0,0,1,.23-.73l.38-1h.36l.13,2.16h-.27Z"/></g></g></svg>